<?xml version="1.0" encoding="utf-8"?>
<svg xmlns="http://www.w3.org/2000/svg" viewBox="0 0 500 500">
  <path style="fill: rgb(216, 216, 216); stroke: rgb(0, 0, 0);" d="M 196.79 21.706 L 194.338 19.254 L 195.564 14.759 C 195.564 14.759 199.65 13.125 200.059 13.125 C 200.468 13.125 206.597 12.307 206.597 12.307 L 208.64 17.211 L 211.092 20.48 L 214.361 21.297 L 215.996 18.437 L 219.673 19.663 L 223.76 22.523 L 227.846 24.158 C 227.846 24.158 232.749 24.975 233.158 24.975 C 233.567 24.975 250.32 36.416 250.32 36.416 L 253.59 36.416 L 255.633 39.685 L 261.763 39.686 L 266.666 47.041 L 270.343 55.622 L 271.978 59.3 L 271.978 63.386 L 271.978 67.064 L 275.656 72.376 L 278.925 84.635 L 282.602 92.399 L 287.097 95.259 L 292.409 100.163 L 289.549 104.658 L 290.366 108.335 L 289.14 112.83 L 268.709 113.239 L 264.214 114.465 L 260.945 117.325 L 264.623 119.777 L 265.44 122.637 L 267.074 125.906 L 269.526 131.219 L 274.838 143.069 L 277.29 143.886 L 280.15 142.66 L 283.011 146.338 L 287.097 149.607 L 287.097 154.51 L 285.054 156.145 L 280.559 151.65 L 276.473 149.607 L 272.795 145.929 L 270.752 142.66 L 266.666 141.843 L 261.762 138.983 L 259.719 134.079 L 256.859 128.358 L 253.59 125.498 L 250.729 125.089 L 249.095 123.046 L 246.643 120.594 L 240.105 121.411 L 230.706 124.272 L 226.62 124.68 L 222.942 126.315 L 222.942 122.229 L 227.029 121.411 L 231.115 118.142 L 235.61 116.508 L 241.739 115.282 L 245.008 114.873 L 247.869 111.196 L 256.041 79.731 L 252.364 76.462 L 245.417 67.473 L 218.039 67.472 L 218.039 83.817 L 211.909 82.592 L 207.006 87.495 L 202.511 92.807 L 199.65 94.442 L 197.607 91.99 L 196.79 95.259 L 194.338 96.485 L 191.886 99.345 L 191.886 103.023 L 188.209 101.797 L 185.757 98.937 L 183.305 96.894 L 178.402 96.894 L 177.176 94.033 L 185.348 93.216 L 186.166 86.678 L 182.897 85.861 L 184.122 78.914 L 180.036 75.236 L 181.262 69.107 L 185.757 67.881 L 188.618 65.838 L 186.983 62.16 C 186.983 62.16 186.574 59.3 186.983 59.3 C 187.392 59.3 191.069 61.343 191.069 61.343 L 193.52 62.569 L 196.381 60.934 L 192.704 55.622 L 200.059 55.214 L 202.919 50.718 L 205.371 44.589 C 205.371 44.589 200.467 44.181 200.876 44.181 C 201.285 44.181 198.016 48.676 198.016 48.676 L 194.747 51.127 L 189.843 49.493 L 193.521 47.449 L 195.155 44.589 L 193.112 42.137 L 199.242 40.503 L 200.467 38.051 L 195.564 32.739 L 193.521 30.287 L 197.607 27.835 L 202.511 26.609 L 196.79 21.706 Z" id="vereda_aposentos"/>
  <path style="fill: rgb(216, 216, 216); stroke: rgb(0, 0, 0);" d="M 289.958 110.378 L 292.818 111.196 L 295.678 108.744 L 300.173 109.153 L 306.303 109.561 L 310.389 107.927 L 313.658 106.701 L 312.841 103.432 L 309.163 100.163 L 306.711 99.754 L 300.991 100.571 L 298.13 101.389 L 294.044 100.571 L 292.001 102.614 L 290.775 105.475 L 289.958 110.378 Z" id="vereda_briceno"/>
  <path style="fill: rgb(216, 216, 216); stroke: rgb(0, 0, 0);" d="M 309.572 99.345 L 313.658 98.528 L 316.519 100.571 L 321.013 103.432 L 325.508 103.84 L 327.96 105.475 L 329.595 107.927 L 336.133 109.97 L 342.262 113.239 L 344.714 114.873 L 344.714 117.734 L 343.488 119.777 L 346.348 122.637 L 352.887 125.906 L 360.242 127.95 L 363.511 131.219 L 363.92 133.67 L 357.79 134.488 L 355.338 137.757 L 354.521 140.208 L 350.026 141.434 L 343.079 146.338 L 334.907 147.564 L 332.046 149.198 L 327.143 148.381 L 324.282 147.972 L 322.648 151.65 L 319.788 153.285 L 315.701 152.467 L 311.615 152.467 L 307.529 154.51 L 301.808 156.554 L 300.173 154.102 L 296.087 154.102 L 292.409 152.876 L 289.14 152.059 L 287.248 150.976 L 286.734 149.093 L 282.796 145.839 L 280.741 143.27 L 280.056 142.414 L 277.829 143.784 L 275.261 143.441 L 265.5 122.549 L 264.986 119.809 L 262.246 118.097 L 260.705 117.069 L 264.643 113.816 L 270.466 112.617 L 289.474 112.959 L 289.988 110.391 L 291.7 111.59 L 295.981 108.678 L 306.256 109.706 L 313.449 106.624 L 312.935 103.883 L 309.572 99.345 Z" id="vereda_ladiana"/>
  <path style="fill: rgb(216, 216, 216); stroke: rgb(0, 0, 0);" d="M 300.092 156.19 L 299.578 160.3 L 302.831 164.067 L 303.688 167.321 L 306.941 170.575 L 311.394 174.856 L 317.045 176.911 L 320.47 176.568 C 320.47 176.568 323.895 178.794 324.066 178.794 C 324.237 178.794 326.121 180.164 326.121 180.164 L 331.259 171.26 L 333.313 168.691 L 336.738 167.492 L 343.588 166.636 L 345.472 167.835 L 343.588 169.547 L 339.992 173.657 L 341.191 175.369 L 344.787 177.424 C 344.787 177.424 347.869 179.479 348.041 179.479 C 348.213 179.479 351.294 177.596 351.294 177.596 L 352.151 176.397 L 354.377 178.966 L 356.946 181.021 L 361.056 183.932 L 365.165 179.308 L 364.309 172.458 L 365.85 170.232 L 365.508 168.348 L 369.104 167.492 L 373.899 169.205 L 376.639 168.691 L 376.639 166.636 L 374.755 165.78 L 372.015 163.896 L 368.933 164.238 L 367.392 163.382 L 368.762 161.156 L 353.521 155.334 L 350.952 163.896 L 343.588 160.813 L 333.828 152.936 L 333.827 151.737 L 338.793 151.737 L 354.206 151.224 L 354.891 148.484 L 357.802 146.429 L 363.282 144.374 L 366.364 140.949 L 369.789 140.435 L 368.419 138.38 L 366.878 136.839 L 366.193 135.469 L 366.022 133.243 L 364.138 133.243 L 358.486 134.099 L 355.405 137.181 C 355.405 137.181 354.719 140.264 354.548 140.435 C 354.377 140.606 350.781 141.121 350.781 141.121 C 350.781 141.121 340.548 148.956 343.246 146.258 L 335.882 147.114 L 332.286 149.34 L 324.237 147.97 L 321.669 152.594 L 320.299 153.45 L 316.36 152.594 L 312.935 152.251 L 311.736 152.08 L 306.085 155.505 L 303.345 156.361 L 300.092 156.19 Z" id="vereda_puebloviejo"/>
  <path style="fill: rgb(216, 216, 216); stroke: rgb(0, 0, 0);" d="M 181.63 97.542 L 178.773 101.469 L 176.81 100.041 L 174.668 97.72 L 170.562 97.363 L 167.17 99.505 L 168.42 102.54 L 169.848 103.611 L 173.597 103.789 L 176.631 105.039 L 176.631 107.181 L 175.917 108.431 L 174.311 111.287 L 172.169 112.179 L 170.919 110.751 L 170.919 106.289 L 170.384 105.039 L 168.599 104.325 L 166.456 104.325 L 164.85 105.932 C 164.85 105.932 164.85 109.859 164.85 110.037 C 164.85 110.215 167.349 112.715 167.349 112.715 L 169.491 116.642 L 172.169 118.963 L 173.061 121.283 L 171.99 122.354 L 170.562 124.496 C 170.562 124.496 170.919 126.638 170.919 126.817 C 170.919 126.996 171.633 128.959 171.633 128.959 L 168.777 128.959 C 168.777 128.959 165.564 128.959 165.564 129.138 C 165.564 129.317 165.742 132.886 165.742 132.886 L 168.956 133.6 L 171.812 133.422 C 171.812 133.422 173.775 134.493 173.775 134.671 C 173.775 134.849 176.81 135.385 176.988 135.385 C 177.166 135.385 178.059 136.635 178.059 136.635 L 176.81 139.491 L 173.775 139.491 L 170.741 140.205 C 170.741 140.205 168.42 140.919 168.42 141.098 C 168.42 141.277 166.278 144.132 166.278 144.132 C 166.278 144.132 162.172 147.881 161.994 147.881 C 161.816 147.881 158.959 147.365 158.959 147.365 L 157.353 149.329 L 155.746 152.899 L 154.853 156.112 L 158.781 159.504 C 158.781 159.504 162.529 161.824 162.529 162.003 C 162.529 162.182 169.491 163.788 169.848 163.788 C 170.205 163.788 171.99 163.966 171.99 163.966 L 169.491 171.067 L 170.562 173.923 L 173.418 175.53 L 177.524 178.921 C 177.524 178.921 181.094 181.42 181.273 181.42 C 181.452 181.42 185.2 184.633 185.378 185.169 C 185.556 185.705 188.413 187.49 188.413 187.49 L 187.699 188.739 C 187.699 188.739 185.735 190.167 185.735 190.346 C 185.735 190.525 182.165 192.845 182.165 192.845 L 181.451 194.63 C 181.451 194.63 180.916 196.415 181.094 196.593 C 181.272 196.771 183.772 197.486 183.772 197.486 L 193.59 197.684 L 196.267 199.112 L 198.052 202.326 L 198.945 206.074 L 201.979 206.253 L 205.193 205.896 L 207.156 208.216 C 207.156 208.216 208.941 210.358 209.12 210.358 C 209.299 210.358 211.44 209.823 211.619 209.823 C 211.798 209.823 213.047 211.072 213.047 211.251 C 213.047 211.43 213.939 211.786 214.296 211.965 C 214.653 212.144 217.867 212.143 217.867 212.143 C 217.867 212.143 219.652 214.107 219.83 214.107 C 220.008 214.107 223.222 216.606 223.222 216.606 L 225.899 216.785 L 229.47 215.714 L 231.255 214.107 L 233.754 213.571 L 235.717 215.357 C 235.717 215.357 237.145 216.606 237.324 216.963 C 237.503 217.32 239.823 218.034 240.359 218.034 C 240.895 218.034 242.679 219.819 242.679 219.819 L 245.357 217.856 L 245.357 213.393 L 246.606 210.001 C 246.606 210.001 246.428 206.788 246.249 206.788 C 246.07 206.788 240.001 201.611 240.001 201.611 L 239.287 197.506 L 237.859 193.757 C 237.859 193.757 235.717 194.472 233.932 192.151 C 232.147 189.83 227.863 188.045 227.863 188.045 C 227.863 188.045 225.9 182.155 225.9 182.333 C 225.9 182.511 226.078 176.621 226.078 176.621 L 225.007 173.943 L 225.185 171.087 L 226.078 169.123 L 227.863 167.16 L 228.041 164.303 L 226.613 163.232 L 223.936 162.875 L 219.652 165.196 L 214.118 158.591 C 214.118 158.591 221.615 153.593 221.436 153.415 C 221.257 153.237 223.579 149.13 223.579 149.13 L 223.936 134.671 L 226.435 132.747 L 228.22 129.534 L 227.327 125.964 L 226.97 124.536 L 222.472 126.142 L 222.687 122.131 C 222.687 122.131 227.271 121.216 227.271 121.287 C 227.271 121.358 230.566 118.064 230.566 118.064 L 235.794 116.345 L 245.177 114.841 L 248.042 111.045 L 248.902 106.891 L 255.589 79.976 L 252.531 76.535 L 245.536 67.364 L 218.023 67.208 L 218.178 84.307 C 218.178 84.307 211.649 82.286 211.649 82.597 C 211.649 82.908 203.1 92.546 203.1 92.546 C 203.1 92.546 199.992 94.566 199.836 94.566 C 199.68 94.566 197.969 92.545 197.969 92.545 L 196.882 95.344 L 194.707 96.431 C 194.707 96.431 192.529 98.297 191.907 98.918 C 191.285 99.539 191.908 103.427 191.908 103.427 L 188.177 101.405 C 189.123 101.272 184.559 96.387 183.979 96.898 C 183.399 97.409 181.96 97.52 181.63 97.542 Z" id="vereda_hatogrande"/>
  <path style="fill: rgb(216, 216, 216); stroke: rgb(0, 0, 0);" d="M 243.968 219.243 L 241.19 225.868 L 239.267 232.706 L 237.557 241.68 L 235.207 248.732 C 235.207 248.732 233.711 252.365 234.138 252.579 C 234.565 252.793 235.421 255.356 235.421 255.356 L 234.566 262.622 L 235.421 264.331 L 245.678 263.69 L 248.028 263.049 L 250.592 260.485 C 250.592 260.485 253.584 259.844 253.798 259.844 C 254.012 259.844 256.576 257.921 256.576 257.921 L 260.422 254.502 L 264.268 254.288 L 269.397 255.143 L 273.884 251.724 C 273.884 251.724 278.586 250.869 279.013 250.869 C 279.44 250.869 283.287 250.869 283.5 251.083 C 283.713 251.297 288.201 252.579 288.201 252.579 L 290.766 250.869 C 290.766 250.869 293.757 250.655 293.971 250.655 C 294.185 250.655 295.253 248.091 295.253 248.091 C 295.253 248.091 296.322 245.099 296.322 244.886 C 296.322 244.673 294.612 242.108 294.612 242.108 L 295.894 239.33 L 295.681 236.552 L 293.544 232.919 L 290.979 231.423 L 289.484 234.201 L 285.424 230.996 L 286.278 226.936 L 286.492 223.517 L 288.415 222.662 C 288.415 222.662 291.193 223.944 291.407 224.158 C 291.621 224.372 295.253 226.509 295.467 226.509 C 295.681 226.509 297.817 225.654 297.817 225.654 L 298.459 221.166 L 298.031 218.602 L 295.04 218.175 L 290.766 218.602 L 286.278 219.457 L 282.005 222.021 C 282.005 224.437 277.09 222.778 277.09 222.662 C 277.09 222.662 275.167 220.525 274.953 219.671 C 274.739 218.817 273.457 213.901 273.457 213.901 L 277.09 212.619 L 278.158 210.268 L 278.158 208.131 L 277.944 205.353 L 274.953 204.285 L 273.884 202.576 L 277.09 200.225 L 275.38 198.302 L 271.106 197.661 L 265.123 194.242 L 266.405 190.823 L 266.405 184.839 L 263.841 182.061 L 261.49 179.735 L 262.132 176.957 L 259.354 175.461 L 259.14 172.897 L 260.636 169.478 L 261.918 164.563 L 258.713 162.212 L 259.14 159.648 L 255.721 158.152 L 259.14 155.161 L 256.789 153.024 L 252.943 153.237 L 251.233 150.459 L 252.516 148.536 L 255.294 147.254 L 253.37 144.049 L 250.806 141.485 L 250.592 138.279 L 254.011 136.997 L 254.011 133.792 L 250.165 131.94 L 249.097 130.23 L 248.883 126.17 L 249.31 124.651 L 245.464 120.804 L 238.84 121.232 L 234.779 122.941 L 226.873 124.77 L 227.087 131.394 L 224.95 134.385 L 223.668 135.668 L 223.454 150.626 L 221.958 153.617 L 214.479 158.532 L 219.821 164.943 L 226.232 162.592 L 228.155 163.471 L 228.369 165.394 L 227.514 167.531 C 227.514 167.531 223.881 170.736 224.309 170.736 C 224.737 170.736 224.95 174.583 224.95 174.583 L 226.018 177.147 L 226.018 181.634 L 228.369 188.686 C 228.369 188.686 235.42 192.105 235.206 192.319 C 234.992 192.533 238.412 193.387 238.412 193.387 L 240.122 197.447 L 240.549 202.362 L 246.318 206.232 L 246.746 210.292 L 245.464 213.07 L 243.968 219.243 Z" id="vereda_aguacaliente"/>
  <path style="fill: rgb(216, 216, 216); stroke: rgb(0, 0, 0);" d="M 234.779 264.212 L 232.002 281.094 L 230.506 288.787 L 226.873 294.556 L 222.813 303.104 L 220.462 328.105 L 220.249 331.738 L 215.548 336.866 L 214.265 340.072 L 220.89 341.354 L 232.856 339.858 L 236.489 341.568 L 249.097 342.209 L 254.866 342.636 L 255.721 345.2 L 266.405 349.474 L 270.465 350.542 L 274.312 347.551 L 277.09 349.26 L 286.492 343.063 L 286.492 336.225 L 287.988 336.439 L 293.971 336.653 L 296.535 334.302 L 295.681 329.387 L 295.681 322.763 L 296.322 318.276 L 299.527 315.925 L 303.587 317.848 C 303.587 317.848 306.151 321.695 306.365 321.695 C 306.579 321.695 310.425 323.19 310.425 323.19 L 318.332 325.968 L 323.46 326.396 L 326.452 327.25 L 327.52 322.763 L 329.23 316.566 L 327.947 315.925 L 325.17 317.848 L 323.887 314.215 L 326.665 312.292 C 326.665 312.292 328.802 311.01 328.802 310.796 C 328.802 310.582 329.016 306.736 329.016 306.736 L 332.008 305.668 L 334.358 304.6 L 332.435 302.676 L 332.862 298.403 L 332.862 291.992 L 327.52 287.504 L 320.896 284.085 L 317.904 281.949 L 314.271 273.401 L 311.28 269.341 L 306.579 257.802 L 299.527 257.588 L 299.1 253.528 L 297.39 253.528 L 295.681 255.238 L 293.971 254.383 L 290.979 252.032 L 289.056 251.605 L 286.919 252.46 C 286.919 252.46 282.004 250.109 282.004 250.536 C 282.004 250.963 274.525 251.605 274.525 251.605 L 270.038 254.81 L 265.337 254.596 L 261.063 254.169 L 255.08 259.297 L 250.592 260.58 L 246.96 263.572 L 234.779 264.212 Z" id="vereda_violeta"/>
  <path style="fill: rgb(216, 216, 216); stroke: rgb(0, 0, 0);" d="M 215.975 340.095 L 212.556 343.087 L 212.342 350.352 C 212.342 350.352 207 365.952 207 366.165 C 207 366.378 206.786 371.935 206.786 371.935 L 198.025 375.568 L 202.299 381.765 L 207 387.748 L 210.633 389.457 L 208.923 391.38 L 214.906 393.517 L 217.257 395.868 L 221.745 396.509 L 226.659 395.013 C 226.659 395.013 230.078 397.577 230.506 397.791 C 230.934 398.005 234.138 398.646 234.138 398.646 L 236.275 397.15 L 240.549 396.295 L 242.686 396.082 L 244.395 393.945 L 243.754 391.38 L 244.395 388.389 L 246.96 389.244 L 251.447 392.449 L 254.866 391.808 L 258.285 390.098 L 261.49 392.876 L 269.397 396.723 L 271.32 402.92 L 274.098 406.766 L 279.868 408.903 L 287.347 410.185 L 293.757 409.33 L 296.963 410.826 L 301.664 415.527 L 307.433 419.16 L 311.921 419.801 L 311.921 418.305 L 312.989 415.527 L 313.203 413.604 L 308.929 412.536 L 308.716 410.612 L 312.135 409.971 L 315.126 408.476 L 313.844 406.766 L 312.989 404.843 L 314.699 401.637 L 313.844 399.287 L 316.195 396.082 L 320.468 397.791 L 323.46 400.996 L 327.734 398.218 L 324.315 396.936 L 321.964 396.509 L 325.597 393.517 L 327.947 390.739 L 326.024 387.961 L 326.024 385.397 L 329.871 382.192 L 328.802 379.2 L 325.383 378.559 L 324.528 375.995 L 327.52 371.721 L 327.093 367.234 L 332.435 364.883 L 330.298 352.703 L 334.999 352.489 L 333.717 347.788 L 340.341 348.643 L 338.204 344.583 L 333.503 345.01 L 331.794 342.446 L 329.871 340.523 L 328.589 335.822 L 325.811 335.181 L 324.956 331.975 L 326.238 329.838 L 326.238 326.847 L 323.46 325.778 L 319.614 326.419 L 306.365 321.291 L 304.014 317.872 L 299.741 315.521 L 296.535 318.062 L 295.894 324.258 L 295.894 330.456 L 296.536 334.729 L 293.971 336.652 L 285.851 336.439 L 286.065 343.491 C 286.065 343.491 277.731 349.474 277.517 349.474 C 277.303 349.474 274.739 347.551 274.739 347.551 L 270.893 350.329 L 255.721 345.414 L 254.439 342.635 C 254.439 342.635 236.916 341.781 236.703 341.781 C 236.49 341.781 232.856 339.004 232.856 339.004 L 220.676 341.568 L 215.975 340.095 Z" id="vereda_mercenario"/>
  <path style="fill: rgb(216, 216, 216); stroke: rgb(0, 0, 0);" d="M 193.253 372.546 L 191.624 378.827 L 189.763 389.529 L 192.788 389.762 L 198.604 390.692 L 196.51 392.553 L 193.486 393.251 L 190.461 398.137 L 187.204 398.602 L 181.155 395.345 L 178.829 401.161 L 179.992 409.537 L 177.666 419.541 L 176.735 423.496 L 176.27 436.059 L 168.127 448.854 L 169.058 453.275 L 175.339 457.23 L 190.927 461.65 L 204.42 464.442 L 204.187 468.164 L 202.094 472.817 L 206.514 475.609 L 211.167 474.213 L 213.959 469.327 L 216.285 470.025 L 219.31 472.352 L 222.799 470.49 L 226.522 470.723 L 229.546 472.584 L 231.872 473.98 L 234.664 472.119 C 234.664 472.119 237.456 472.352 237.921 472.352 C 238.386 472.352 251.648 472.119 251.648 472.119 L 259.558 475.841 L 269.096 478.168 L 294.222 479.796 L 301.434 481.658 L 305.854 480.727 L 305.156 477.005 L 308.181 477.237 L 310.507 476.539 L 311.671 474.678 L 309.344 472.119 L 314.23 471.188 L 312.369 468.397 L 307.483 466.07 L 307.483 457.927 L 311.903 460.487 L 313.532 457.462 L 312.136 455.601 L 314.695 453.042 L 313.764 448.854 L 317.022 449.32 L 316.789 446.528 L 314.695 442.573 L 318.65 442.34 L 320.046 440.479 L 318.185 438.618 L 316.324 437.222 L 321.209 433.965 L 322.14 431.173 C 322.14 431.173 320.279 430.242 320.279 430.475 C 320.279 430.708 316.091 425.357 316.091 425.357 L 312.834 426.985 C 312.834 426.985 310.507 428.614 310.274 428.846 C 310.041 429.078 308.181 426.287 308.181 426.287 L 310.042 423.728 L 313.067 423.495 L 311.904 421.635 L 310.274 419.307 C 303.928 418.153 301.617 415.111 301.666 415.12 C 301.715 415.129 296.782 410.468 296.782 410.468 L 293.989 409.537 L 287.01 409.769 L 280.031 409.072 L 274.214 406.977 L 271.19 403.022 L 269.562 396.509 C 269.562 396.509 261.186 393.019 261.186 392.786 C 261.186 392.553 258.394 389.762 258.394 389.762 L 254.439 391.855 L 251.648 392.321 L 247.46 389.063 L 244.436 388.133 L 244.668 393.717 L 242.574 396.043 L 236.991 397.439 L 233.966 398.602 L 230.244 397.672 L 226.755 395.113 L 221.636 396.741 L 217.215 395.811 C 217.215 395.811 215.355 393.019 214.889 393.019 C 214.423 393.019 208.841 391.623 208.841 391.623 L 210.469 389.064 L 207.212 387.901 L 193.253 372.546 Z" id="vereda_gabriel"/>
  <path style="fill: rgb(216, 216, 216); stroke: rgb(0, 0, 0);" d="M 323.509 401.608 L 329.621 404.97 L 339.095 407.415 L 347.346 406.804 L 357.125 411.693 L 365.071 410.471 L 367.822 415.055 L 379.74 406.192 L 382.796 407.109 L 388.603 398.552 L 394.409 398.858 L 395.021 394.579 L 393.187 384.494 L 398.993 380.521 L 399.91 368.297 L 404.494 366.769 L 408.773 363.407 L 409.078 355.462 L 405.717 348.738 L 410.301 343.849 L 414.579 338.348 L 412.746 331.319 C 412.746 331.319 418.247 326.429 418.247 326.123 C 418.247 325.817 415.191 322.151 415.191 322.151 L 411.523 319.094 L 412.746 313.899 L 412.44 307.176 L 410.301 305.953 L 410.301 294.646 L 412.746 294.035 C 412.746 294.035 418.247 295.868 417.941 295.868 C 417.635 295.868 425.276 292.201 425.276 292.201 L 428.637 287.617 L 432.61 285.783 L 430.165 281.505 C 430.165 281.505 430.165 276.615 430.165 276.31 C 430.165 276.005 420.692 287.923 420.692 287.923 L 348.874 287.617 L 332.677 301.675 L 334.205 304.425 C 334.205 304.425 329.315 306.87 329.621 306.87 C 329.927 306.87 329.01 310.537 329.01 310.537 L 324.426 313.288 L 326.565 318.483 L 329.62 316.039 L 326.87 326.429 L 325.342 330.402 L 326.259 335.156 L 329.01 336.072 L 330.538 340.046 L 333.594 344.935 L 339.095 344.63 L 340.622 348.908 L 334.205 348.128 C 334.205 348.128 334.816 353.017 334.816 352.405 C 334.816 351.793 329.926 354.24 329.926 352.712 C 329.926 351.184 332.371 365.241 332.371 365.241 L 327.176 366.769 L 327.788 371.659 L 325.342 375.937 L 325.954 378.993 C 325.954 378.993 329.621 378.994 329.315 378.994 C 329.009 378.994 329.927 382.66 329.927 382.66 L 325.648 384.8 C 325.648 384.8 325.648 387.856 325.954 387.856 C 326.26 387.856 328.398 391.523 328.398 391.523 L 321.98 396.719 C 321.98 396.719 327.175 398.858 327.481 398.552 C 327.787 398.246 323.203 402.22 323.509 401.608 Z" id="vereda_centroalto"/>
  <path style="fill: rgb(216, 216, 216); stroke: rgb(0, 0, 0);" d="M 306.292 257.491 L 311.501 270.167 L 314.8 273.813 L 318.1 282.843 L 328.518 287.705 L 333.206 292.393 L 333.206 301.422 L 348.14 287.184 L 421.59 288.226 L 430.098 275.724 L 430.272 268.951 L 425.584 267.736 L 426.626 262.7 L 423.326 261.659 L 421.243 258.707 L 417.596 261.311 L 406.483 259.575 L 405.094 256.102 L 402.837 251.935 L 400.753 247.941 L 396.238 248.115 L 392.592 243.426 L 389.293 244.989 L 365.504 244.642 L 362.031 246.378 L 359.774 246.031 L 357.864 241.863 L 350.918 240.474 L 349.008 243.947 L 306.292 257.491 Z" id="vereda_gratamira"/>
  <path style="fill: rgb(216, 216, 216); stroke: rgb(0, 0, 0);" d="M 350.918 240.397 L 358.558 242.307 L 359.774 245.606 L 362.552 246.822 L 366.198 244.391 L 389.466 245.433 L 393.286 243.349 L 391.376 241.265 L 392.071 238.314 L 389.814 236.577 L 386.167 235.188 L 380.958 235.014 L 375.749 237.272 L 372.97 237.793 L 365.504 236.577 L 364.983 234.667 L 368.456 232.757 L 370.713 230.673 L 367.414 229.284 L 363.767 228.242 L 359.774 227.721 L 357.864 227.721 L 356.995 229.805 L 352.828 231.368 L 351.96 234.493 L 350.918 240.397 Z" id="vereda_chuscal"/>
  <path style="fill: rgb(216, 216, 216); stroke: rgb(0, 0, 0);" d="M 357.864 181.263 C 357.864 181.263 360.815 184.215 360.989 184.215 C 361.163 184.215 365.504 179.526 365.504 179.526 L 369.497 181.436 L 368.977 184.215 L 370.539 185.083 L 374.186 185.083 L 375.054 186.993 L 373.144 188.729 L 370.018 189.598 L 368.977 192.376 L 371.234 194.633 L 374.707 195.154 L 378.874 195.675 L 381.479 195.501 L 382.347 197.759 L 379.742 199.495 L 375.749 200.884 L 375.401 202.794 L 377.832 204.878 L 376.443 206.267 L 373.839 206.267 L 373.144 207.83 L 374.186 212.345 L 372.449 214.081 L 368.629 214.949 L 365.851 215.123 L 363.767 216.686 L 364.462 221.027 L 362.725 224.152 L 360.989 227.625 L 358.558 226.409 L 360.121 221.721 L 361.684 217.727 L 359.774 214.776 L 358.384 212.865 L 355.259 210.087 L 355.433 205.052 L 357.864 181.263 Z" id="vereda_urbano"/>
  <path style="fill: rgb(216, 216, 216); stroke: rgb(0, 0, 0);" d="M 369.497 181.34 L 369.15 184.118 C 369.15 184.118 373.839 184.639 374.012 184.639 C 374.185 184.639 375.228 187.07 375.228 187.07 L 372.449 188.98 L 370.366 189.675 L 368.803 192.106 C 368.803 192.106 371.06 194.884 371.234 194.884 C 371.408 194.884 381.131 195.579 381.131 195.579 L 383.215 193.495 L 381.305 189.675 C 381.305 189.675 395.196 189.327 395.37 189.327 C 395.544 189.327 400.579 185.334 400.579 185.334 L 399.711 183.25 L 393.286 183.076 L 388.077 181.34 L 385.82 180.124 L 381.305 182.208 L 369.497 181.34 Z" id="vereda_bellavista"/>
  <path style="fill: rgb(216, 216, 216); stroke: rgb(0, 0, 0);" d="M 380.785 189.54 C 381.965 191.131 402.071 188.411 400.406 185.411 L 399.885 184.022 L 425.758 206.421 L 425.757 206.151 L 421.937 217.091 L 417.596 223.168 L 417.596 226.467 L 415.686 228.725 L 413.082 231.329 L 413.776 233.934 L 416.381 235.67 L 419.333 241.574 L 418.985 245.394 L 419.333 249.562 C 419.333 249.562 421.764 252.34 422.111 252.34 C 422.458 252.34 426.452 251.819 426.452 251.819 L 425.931 253.382 L 424.021 254.597 L 426.452 259.999 L 426.973 263.125 L 423.153 261.91 L 421.243 257.916 L 417.423 261.736 L 406.657 259.652 L 400.753 247.671 L 395.891 248.192 L 393.113 243.677 L 391.724 241.246 L 392.071 238.815 L 388.598 235.69 L 380.263 234.995 L 374.88 236.905 L 369.671 237.252 L 364.983 236.558 L 364.809 235.169 L 370.886 231.002 L 361.336 228.223 L 364.288 221.625 L 363.42 217.111 C 363.42 217.111 365.504 215.065 365.504 214.892 C 365.504 214.719 368.282 215.586 368.282 215.586 C 368.282 215.586 372.276 214.544 372.449 214.37 C 372.622 214.196 374.186 212.807 374.186 212.807 L 373.144 208.293 L 373.839 205.862 L 376.79 206.557 L 378.006 204.82 L 375.402 203.084 L 375.922 201.174 L 379.569 199.611 L 382.52 198.048 L 380.611 195.791 L 382.868 193.881 L 380.785 189.54 Z" id="vereda_centroalto"/>
  <path style="fill: rgb(216, 216, 216); stroke: rgb(0, 0, 0);" d="M 400.058 183.173 L 425.931 206.267 L 431.487 199.669 C 431.487 199.669 440.517 188.382 440.517 188.208 C 440.517 188.034 441.385 182.999 441.385 182.999 L 439.475 181.784 L 437.912 182.999 L 435.655 182.305 L 430.793 176.748 L 429.404 175.88 L 425.063 177.095 L 419.159 173.623 L 418.464 168.066 L 418.638 164.593 L 415.512 162.857 L 414.123 167.198 L 413.602 172.407 L 409.782 172.06 L 407.178 169.629 L 403.879 168.587 L 403.358 172.06 L 404.226 177.269 L 401.448 182.478 L 400.058 183.173 Z" id="vereda_mirador"/>
  <path style="fill: rgb(216, 216, 216); stroke: rgb(0, 0, 0);" d="M 333.727 151.319 L 333.901 153.229 C 333.901 153.229 343.278 160.87 343.625 160.87 C 343.972 160.87 351.091 164.69 351.091 164.69 L 353.87 154.966 L 369.324 161.217 L 367.761 163.301 L 368.977 164.343 L 371.755 163.474 C 371.755 163.474 376.27 166.773 376.443 166.773 C 376.616 166.773 376.617 168.684 376.617 168.684 L 373.665 169.552 L 368.108 167.294 L 365.504 167.989 L 365.851 170.073 L 364.115 172.504 L 365.504 179.276 L 369.15 181.186 L 381.479 182.575 L 386.341 180.318 L 390.682 181.88 L 393.807 183.096 L 399.885 183.096 L 401.621 182.054 L 404.747 177.539 L 403.184 172.677 L 403.531 167.989 C 403.531 167.989 407.178 169.031 407.351 169.031 C 407.524 169.031 409.609 171.809 409.609 171.809 L 412.213 171.983 L 414.297 172.156 L 414.818 166.253 L 415.86 163.822 L 416.554 161.564 L 416.902 159.307 L 415.339 158.612 L 413.95 161.217 L 411.345 162.085 L 409.261 161.912 L 405.962 160.349 L 402.489 157.57 L 398.496 153.056 L 396.759 153.577 L 393.113 151.319 L 392.071 148.367 L 389.293 146.457 L 386.688 148.02 L 384.083 148.541 L 380.611 146.284 L 377.311 142.985 L 371.06 140.727 L 368.282 140.38 L 366.372 140.727 L 363.246 144.373 L 357.864 146.457 L 355.085 148.02 L 354.217 151.146 L 342.583 151.493 L 333.727 151.319 Z" id="vereda_carolina"/>
  <path style="fill: rgb(216, 216, 216); stroke: rgb(0, 0, 0);" d="M 351.756 175.965 L 357.868 181.444 L 355.128 211.161 L 361.029 215.587 L 361.872 218.959 L 358.5 226.336 L 357.025 229.497 L 352.809 231.183 L 351.123 239.824 L 349.227 244.039 L 306.443 257.809 L 299.277 258.019 L 299.277 252.961 L 297.591 252.961 L 295.694 255.49 L 290.215 251.697 L 290.847 250.221 L 294.641 251.064 L 296.537 245.163 L 294.008 242.213 L 296.116 239.683 L 295.484 236.522 L 293.587 232.518 L 291.268 231.253 L 289.582 234.625 L 285.156 231.464 L 286.632 223.244 L 288.318 222.823 L 296.959 225.985 L 298.224 222.823 L 298.224 218.186 L 289.16 218.397 C 289.16 218.397 283.681 221.137 283.681 220.926 C 283.681 220.715 281.784 222.401 281.784 222.401 C 281.784 222.401 277.569 222.823 277.569 222.612 C 277.569 222.401 275.04 219.872 275.04 219.872 L 273.143 214.182 L 277.78 213.127 L 278.412 209.967 L 278.201 206.384 C 278.201 206.384 274.829 203.855 275.04 204.066 C 275.251 204.277 273.775 202.169 273.775 202.379 C 273.775 202.589 277.147 200.694 277.147 200.694 L 275.251 197.954 L 271.668 197.954 L 265.135 194.16 L 266.61 191.42 L 266.821 185.097 L 261.552 179.454 L 261.973 177.135 L 259.655 175.66 L 259.023 173.553 L 261.762 164.912 L 258.39 162.383 L 260.076 159.643 L 255.229 157.957 L 259.866 155.638 L 256.704 152.898 L 252.489 153.109 L 250.592 150.159 L 252.7 148.145 L 255.44 147.302 L 252.278 142.244 L 250.803 140.557 L 250.803 138.45 L 253.543 137.092 L 254.175 133.93 L 249.749 131.401 L 249.539 124.915 L 251.225 124.704 L 253.964 125.547 L 256.493 128.076 L 261.763 139.41 C 261.763 139.41 266.609 142.36 266.82 142.36 C 267.031 142.36 269.982 142.15 269.982 142.36 C 269.982 142.57 272.722 145.944 272.932 145.944 C 273.142 145.944 275.884 149.526 275.884 149.526 C 275.884 149.526 280.309 151.423 280.52 151.423 C 280.731 151.423 284.735 156.365 284.735 156.365 C 284.735 156.365 286.21 154.257 287.053 154.679 C 287.896 155.101 287.053 149.831 287.264 150.042 C 287.475 150.253 294.008 153.836 295.483 153.836 C 296.958 153.836 295.149 153.123 299.699 153.835 C 304.249 154.547 300.441 160.111 299.91 159.314 C 299.083 159.727 301.681 164.436 303.071 163.741 C 302.386 164.768 304.963 169.65 305.599 169.01 C 306.235 168.37 310.868 174.279 310.868 174.279 L 316.559 176.808 L 320.353 177.019 L 326.254 179.337 L 333.419 167.956 L 343.325 166.059 L 345.222 167.535 L 339.953 174.068 L 351.756 175.965 Z" id="vereda_comuneros"/>
</svg>